<?xml version="1.0" encoding="utf-8"?>
<!-- Generator: Adobe Illustrator 25.0.1, SVG Export Plug-In . SVG Version: 6.00 Build 0)  -->
<svg version="1.1" id="Capa_1" xmlns="http://www.w3.org/2000/svg" xmlns:xlink="http://www.w3.org/1999/xlink" x="0px" y="0px"
	 viewBox="0 0 627.7 152" style="enable-background:new 0 0 627.7 152;" xml:space="preserve">
<style type="text/css">
	.st0{fill:#FFFFFF;}
	.st1{fill:#D71B16;}
	.st2{enable-background:new    ;}
	.st3{fill:#8D8B8A;}
</style>
<path class="st0" d="M434.3-0.6H0.3V75c4.1,50.2,49,75.7,94.5,76.4h438.1c47.7-0.7,94.8-28.7,94.8-84v-68L434.3-0.6z"/>
<path class="st1" d="M532.9,151.4H529C530.3,151.4,531.6,151.4,532.9,151.4z"/>
<path class="st1" d="M98.6,151.4h-3.9C96.1,151.4,97.3,151.4,98.6,151.4z"/>
<g class="st2">
	<path class="st3" d="M378.3,52.4h11.2c5.6,0,9.8,1.2,12.6,3.6c2.9,2.5,4.4,6.4,4.4,11.5c0,5.5-1.6,9.6-4.8,12.3
		c-2.9,2.5-7.1,3.7-12.5,3.7h-10.8V52.4z M389.8,79.4c4,0,6.9-1,8.9-3.1c1.9-2,2.9-4.9,2.9-8.8c0-3.9-1-6.7-3-8.5
		c-1.9-1.7-5-2.5-9.2-2.5h-6.2v22.9H389.8z"/>
	<path class="st3" d="M412.9,52.4h4.8v31.2h-4.8V52.4z"/>
	<path class="st3" d="M431.8,82c-2.6-1.4-4.5-3.2-5.8-5.6c-1.3-2.4-2-5.1-2-8.2c0-3.2,0.7-6,2.1-8.5s3.5-4.3,6.2-5.7
		c2.7-1.4,5.8-2,9.4-2c3.4,0,6.5,0.6,9.2,1.8l-0.5,4.3c-2.8-1.3-5.7-1.9-8.8-1.9c-2.6,0-4.9,0.5-6.8,1.5c-1.9,1-3.4,2.3-4.4,4.1
		S429,65.5,429,68c0,2.5,0.5,4.6,1.6,6.4c1,1.8,2.5,3.1,4.4,4.1c1.9,1,4,1.4,6.3,1.4c1.1,0,2.3-0.1,3.5-0.3c1.2-0.2,2.1-0.5,2.8-0.8
		v-10l4.8-1.2v13.7c-1.4,0.8-3,1.5-5.1,2s-4.2,0.8-6.3,0.8C437.4,84,434.4,83.3,431.8,82z"/>
	<path class="st3" d="M459.2,52.4h4.8v31.2h-4.8V52.4z"/>
</g>
<g class="st2">
	<path class="st3" d="M479.1,56.5h-10.5v-4.1h26.6l-1.4,4.1h-9.9v27h-4.8V56.5z"/>
</g>
<g class="st2">
	<path class="st3" d="M504.7,52.3h3.9l12.6,31.2h-5.1l-2.9-7.2h-13.3l-2.9,7.2h-5.2L504.7,52.3z M511.6,72.2l-4.8-12.5h-0.4
		l-4.9,12.5H511.6z"/>
</g>
<g class="st2">
	<path class="st3" d="M526.4,82c-1-1-1.5-2.6-1.5-4.7v-25h4.8v23.8c0,1.2,0.2,2,0.7,2.5c0.4,0.5,1.2,0.7,2.4,0.7H545l-1.4,4.1H531
		C528.9,83.5,527.3,83,526.4,82z"/>
</g>
<g class="st2">
	<path class="st1" d="M230.3,52.4h5.4l9.8,23.7h0.3l9.4-23.7h5.4l-13.1,31.2h-3.9L230.3,52.4z"/>
	<path class="st1" d="M264.9,52.4h4.8v31.2h-4.8V52.4z"/>
	<path class="st1" d="M280.7,83.4c-1.8-0.4-3.4-0.9-4.9-1.6l0.6-4.4c1.5,0.8,3,1.4,4.6,1.8c1.6,0.4,3.2,0.6,4.7,0.6
		c2.3,0,4-0.5,5.2-1.4c1.2-0.9,1.8-2.2,1.8-3.7c0-1-0.3-1.8-0.8-2.5c-0.5-0.6-1.3-1.1-2.2-1.5c-0.9-0.4-2.3-0.8-4-1.4
		c-1.8-0.6-3.4-1.1-4.6-1.7c-1.2-0.6-2.3-1.4-3.2-2.6c-0.9-1.2-1.3-2.7-1.3-4.6c0-2.9,1-5,3.1-6.5c2-1.5,4.7-2.2,8.1-2.2
		c2.3,0,5.1,0.4,8.2,1.3l-0.3,4.2c-2.9-0.9-5.5-1.4-7.8-1.4c-4.2,0-6.3,1.4-6.3,4.3c0,1,0.2,1.8,0.7,2.4c0.5,0.6,1.1,1.1,2,1.4
		c0.9,0.4,2.1,0.8,3.8,1.3c2.2,0.6,3.9,1.3,5.2,1.8c1.3,0.6,2.3,1.4,3.1,2.6c0.8,1.1,1.2,2.6,1.2,4.5c0,3.1-1.1,5.5-3.2,7.2
		c-2.2,1.7-5,2.5-8.5,2.5C284.2,84,282.5,83.8,280.7,83.4z"/>
	<path class="st1" d="M303.5,52.4h4.8v31.2h-4.8V52.4z"/>
</g>
<g class="st2">
	<path class="st1" d="M323.4,56.5h-10.5v-4.1h26.6l-1.4,4.1h-9.9v27h-4.8V56.5z"/>
</g>
<g class="st2">
	<path class="st1" d="M349,52.3h3.9l12.6,31.2h-5.1l-2.9-7.2h-13.3l-2.9,7.2h-5.2L349,52.3z M356,72.2l-4.8-12.5h-0.4l-4.9,12.5H356
		z"/>
</g>
<g class="st2">
	<path class="st3" d="M241.5,113.2h2.6l8.3,20.6H249l-1.9-4.8h-8.8l-1.9,4.8H233L241.5,113.2z M246,126.3l-3.2-8.3h-0.2l-3.2,8.3
		H246z"/>
</g>
<g class="st2">
	<path class="st3" d="M269.4,132.1c-1.4-1.3-2.2-3.3-2.2-5.9v-12.9h3.2v12.8c0,1.7,0.4,3,1.3,3.9c0.9,0.9,2.2,1.4,3.9,1.4
		c1.7,0,3-0.5,3.9-1.4c0.9-0.9,1.3-2.2,1.3-3.9v-12.8h3.2v12.9c0,2.7-0.7,4.6-2.1,5.9c-1.4,1.3-3.5,2-6.2,2
		C272.9,134.1,270.8,133.5,269.4,132.1z"/>
</g>
<g class="st2">
	<path class="st3" d="M305.9,116H299v-2.7h17.5l-0.9,2.7h-6.5v17.8h-3.2V116z"/>
</g>
<g class="st2">
	<path class="st3" d="M335,132.8c-1.6-0.8-2.8-2.1-3.7-3.7c-0.9-1.6-1.4-3.5-1.4-5.6c0-2.2,0.5-4,1.4-5.6c0.9-1.6,2.2-2.8,3.8-3.7
		c1.6-0.8,3.3-1.3,5.2-1.3c1.9,0,3.6,0.4,5.2,1.3c1.6,0.8,2.8,2.1,3.8,3.7c0.9,1.6,1.4,3.5,1.4,5.6c0,2.1-0.5,4-1.4,5.6
		c-0.9,1.6-2.2,2.8-3.7,3.7c-1.6,0.8-3.3,1.3-5.2,1.3C338.3,134.1,336.6,133.7,335,132.8z M343.7,130.5c1.1-0.6,1.9-1.5,2.6-2.7
		c0.6-1.2,1-2.6,1-4.2c0-1.6-0.3-3.1-1-4.2c-0.6-1.2-1.5-2.1-2.6-2.7c-1.1-0.6-2.3-0.9-3.5-0.9c-1.3,0-2.5,0.3-3.5,0.9
		c-1.1,0.6-1.9,1.5-2.6,2.7c-0.6,1.2-1,2.6-1,4.2c0,1.6,0.3,3,1,4.2c0.6,1.2,1.5,2.1,2.6,2.7c1.1,0.6,2.2,0.9,3.5,0.9
		C341.5,131.4,342.7,131.1,343.7,130.5z"/>
</g>
<g class="st2">
	<path class="st3" d="M371.6,132.8c-1.7-0.9-3-2.1-3.8-3.7c-0.9-1.6-1.3-3.4-1.3-5.4c0-2.1,0.5-4,1.4-5.6c0.9-1.6,2.3-2.9,4.1-3.7
		c1.8-0.9,3.8-1.3,6.2-1.3c2.3,0,4.3,0.4,6.1,1.2l-0.3,2.8c-1.8-0.8-3.7-1.3-5.8-1.3c-1.7,0-3.2,0.3-4.5,1c-1.3,0.6-2.2,1.5-2.9,2.7
		c-0.7,1.2-1,2.6-1,4.2c0,1.6,0.3,3,1,4.2c0.7,1.2,1.6,2.1,2.9,2.7c1.2,0.6,2.6,0.9,4.2,0.9c0.7,0,1.5-0.1,2.3-0.2s1.4-0.3,1.9-0.5
		v-6.6l3.2-0.8v9c-0.9,0.5-2,1-3.4,1.3c-1.3,0.3-2.7,0.5-4.2,0.5C375.3,134.1,373.3,133.7,371.6,132.8z"/>
</g>
<g class="st2">
	<path class="st3" d="M403.9,132.1c-1.4-1.3-2.2-3.3-2.2-5.9v-12.9h3.2v12.8c0,1.7,0.4,3,1.3,3.9c0.9,0.9,2.2,1.4,3.9,1.4
		c1.7,0,3-0.5,3.9-1.4c0.9-0.9,1.3-2.2,1.3-3.9v-12.8h3.2v12.9c0,2.7-0.7,4.6-2.1,5.9c-1.4,1.3-3.5,2-6.2,2
		C407.3,134.1,405.3,133.5,403.9,132.1z"/>
	<path class="st3" d="M436.1,113.3h3.2v20.5h-3.2V113.3z"/>
	<path class="st3" d="M463.6,113.2h2.6l8.3,20.6h-3.4l-1.9-4.8h-8.8l-1.9,4.8h-3.4L463.6,113.2z M468.1,126.3l-3.2-8.3h-0.2
		l-3.2,8.3H468.1z"/>
</g>
<g class="st2">
	<path class="st3" d="M490.3,113.3h7.4c3.7,0,6.5,0.8,8.3,2.4c1.9,1.7,2.9,4.2,2.9,7.6c0,3.6-1.1,6.3-3.2,8.1
		c-1.9,1.6-4.7,2.4-8.3,2.4h-7.1V113.3z M497.8,131.1c2.6,0,4.6-0.7,5.9-2c1.3-1.3,1.9-3.2,1.9-5.8c0-2.6-0.7-4.4-2-5.6
		c-1.3-1.1-3.3-1.6-6.1-1.6h-4.1v15H497.8z"/>
	<path class="st3" d="M529.8,113.2h2.6l8.3,20.6h-3.4l-1.9-4.8h-8.8l-1.9,4.8h-3.4L529.8,113.2z M534.4,126.3l-3.2-8.3H531l-3.2,8.3
		H534.4z"/>
</g>
<rect x="230.3" y="36.6" class="st3" width="311.7" height="3.3"/>
<rect x="230.3" y="94.8" class="st3" width="311.7" height="3.3"/>
<path class="st0" d="M59.7,145.7l-0.4-0.1L59.7,145.7z"/>
<path class="st0" d="M17.6,118.2l-0.6-0.7L17.6,118.2z"/>
<path class="st0" d="M16.3,116.6l-0.6-0.8L16.3,116.6z"/>
<path class="st0" d="M18.9,119.8l-0.6-0.7L18.9,119.8z"/>
<path class="st0" d="M69.5,148.4h-0.1H69.5z"/>
<path class="st0" d="M21.7,122.8l-0.6-0.7L21.7,122.8z"/>
<path class="st0" d="M57.9,145l-0.5-0.2L57.9,145z"/>
<path class="st0" d="M20.3,121.3l-0.6-0.7L20.3,121.3z"/>
<path class="st0" d="M73.8,149.2l-0.5-0.1L73.8,149.2z"/>
<path class="st0" d="M11.5,109.8c-0.1-0.1-0.1-0.2-0.2-0.4C11.3,109.5,11.4,109.6,11.5,109.8z"/>
<path class="st0" d="M23.2,124.3l-0.6-0.6L23.2,124.3z"/>
<path class="st0" d="M9.8,106.9c-0.1-0.2-0.3-0.5-0.4-0.7C9.5,106.4,9.7,106.7,9.8,106.9z"/>
<path class="st0" d="M13.8,113.3l-0.5-0.8L13.8,113.3z"/>
<path class="st0" d="M15,115c-0.2-0.2-0.4-0.5-0.6-0.8C14.6,114.5,14.8,114.7,15,115z"/>
<path class="st0" d="M12.6,111.5c-0.2-0.2-0.3-0.5-0.5-0.8C12.3,111,12.4,111.3,12.6,111.5z"/>
<path class="st0" d="M71.7,148.8l-0.4-0.1L71.7,148.8z"/>
<path class="st0" d="M27.8,128.4l-0.6-0.5L27.8,128.4z"/>
<path class="st0" d="M38.9,136.3c-0.2-0.1-0.4-0.2-0.6-0.4C38.5,136.1,38.7,136.2,38.9,136.3z"/>
<path class="st0" d="M50.1,142l-0.7-0.3L50.1,142z"/>
<path class="st0" d="M40.7,137.3l-0.6-0.4L40.7,137.3z"/>
<path class="st0" d="M37.1,135.2l-0.4-0.3L37.1,135.2z"/>
<path class="st0" d="M44.4,139.3l-0.7-0.4L44.4,139.3z"/>
<path class="st0" d="M48.2,141.2l-0.7-0.3L48.2,141.2z"/>
<path class="st0" d="M42.5,138.4l-0.7-0.4L42.5,138.4z"/>
<path class="st0" d="M52,142.9l-0.7-0.3L52,142.9z"/>
<path class="st0" d="M26.2,127.1l-0.7-0.6L26.2,127.1z"/>
<path class="st0" d="M30.9,130.9l-0.5-0.4L30.9,130.9z"/>
<path class="st0" d="M54,143.6l-0.7-0.3L54,143.6z"/>
<path class="st0" d="M24.7,125.7l-0.7-0.6L24.7,125.7z"/>
<path class="st0" d="M55.9,144.4l-0.6-0.2L55.9,144.4z"/>
<path class="st0" d="M8.8,105.1c-0.1-0.3-0.3-0.6-0.4-0.8C8.5,104.6,8.7,104.9,8.8,105.1z"/>
<path class="st0" d="M29.4,129.7l-0.6-0.5L29.4,129.7z"/>
<path class="st0" d="M6.1,99.3l-0.4-0.9L6.1,99.3z"/>
<path class="st0" d="M82.3,150.6l-0.6-0.1L82.3,150.6z"/>
<path class="st0" d="M3.2,91c-0.1-0.3-0.2-0.7-0.3-1C3,90.3,3.1,90.7,3.2,91z"/>
<path class="st0" d="M4.6,95.3c-0.1-0.3-0.2-0.7-0.3-1C4.3,94.6,4.4,95,4.6,95.3z"/>
<path class="st0" d="M3.8,93.2c-0.1-0.3-0.2-0.7-0.3-1C3.6,92.5,3.8,92.8,3.8,93.2z"/>
<path class="st0" d="M2.6,88.9l-0.3-1.1L2.6,88.9z"/>
<path class="st0" d="M0.5,77.4c0-0.4-0.1-0.8-0.1-1.2C0.5,76.6,0.5,77,0.5,77.4z"/>
<path class="st0" d="M1.6,84.4l-0.2-1.1L1.6,84.4z"/>
<path class="st0" d="M84.5,150.8l-0.6-0.1L84.5,150.8z"/>
<path class="st0" d="M0.8,79.8c0-0.4-0.1-0.8-0.1-1.2C0.7,79,0.8,79.4,0.8,79.8z"/>
<path class="st0" d="M86.6,151l-0.6-0.1L86.6,151z"/>
<path class="st0" d="M2.1,86.6c-0.1-0.4-0.1-0.7-0.2-1.1C1.9,85.9,2,86.3,2.1,86.6z"/>
<path class="st0" d="M88.8,151.1h-0.5H88.8z"/>
<path class="st0" d="M1.2,82.1C1.1,81.7,1.1,81.4,1,81C1.1,81.4,1.1,81.7,1.2,82.1z"/>
<path class="st0" d="M46.3,140.3l-0.7-0.4L46.3,140.3z"/>
<path class="st0" d="M7.9,103.3l-0.4-0.9L7.9,103.3z"/>
<path class="st0" d="M92.9,151.3L92.9,151.3z"/>
<path class="st0" d="M78.1,150l-0.6-0.1L78.1,150z"/>
<path class="st0" d="M7,101.3c-0.1-0.3-0.3-0.6-0.4-0.9C6.7,100.7,6.8,101,7,101.3z"/>
<path class="st0" d="M90.8,151.2h-0.4H90.8z"/>
<path class="st0" d="M75.9,149.6l-0.6-0.1L75.9,149.6z"/>
<path class="st0" d="M5.3,97.3c-0.1-0.3-0.2-0.7-0.4-1C5.1,96.7,5.2,97,5.3,97.3z"/>
<path class="st0" d="M80.2,150.3l-0.6-0.1L80.2,150.3z"/>
<path class="st1" d="M47.5,140.8l-1.2-0.6L47.5,140.8z"/>
<path class="st1" d="M88.2,151.1l-1.6-0.1L88.2,151.1z"/>
<path class="st1" d="M92.6,151.3l-1.7-0.1L92.6,151.3z"/>
<path class="st1" d="M49.4,141.7l-1.2-0.6L49.4,141.7z"/>
<path class="st1" d="M75.4,149.5l-1.6-0.3L75.4,149.5z"/>
<path class="st1" d="M90.4,151.2l-1.7-0.1L90.4,151.2z"/>
<path class="st1" d="M51.4,142.6l-1.2-0.6L51.4,142.6z"/>
<path class="st1" d="M53.3,143.4l-1.3-0.5L53.3,143.4z"/>
<path class="st1" d="M79.6,150.2l-1.5-0.2L79.6,150.2z"/>
<path class="st1" d="M69.4,148.3c-3.3-0.7-6.5-1.6-9.7-2.7C62.9,146.7,66.1,147.6,69.4,148.3z"/>
<path class="st1" d="M71.3,148.7l-1.8-0.4L71.3,148.7z"/>
<path class="st1" d="M73.3,149.1l-1.6-0.3L73.3,149.1z"/>
<path class="st1" d="M77.5,149.9l-1.6-0.3L77.5,149.9z"/>
<path class="st1" d="M81.7,150.5l-1.5-0.2L81.7,150.5z"/>
<path class="st1" d="M55.3,144.1c-0.5-0.2-0.9-0.3-1.3-0.5C54.4,143.8,54.9,144,55.3,144.1z"/>
<path class="st1" d="M86.1,150.9l-1.6-0.1L86.1,150.9z"/>
<path class="st1" d="M83.9,150.7l-1.5-0.2L83.9,150.7z"/>
<path class="st1" d="M57.3,144.9l-1.4-0.5L57.3,144.9z"/>
<path class="st1" d="M59.4,145.6l-1.5-0.5L59.4,145.6z"/>
<path class="st1" d="M43.7,139l-1.2-0.6L43.7,139z"/>
<path class="st1" d="M2.9,90c-0.1-0.4-0.2-0.8-0.3-1.1C2.7,89.2,2.8,89.6,2.9,90z"/>
<path class="st1" d="M5.7,98.4l-0.4-1.1L5.7,98.4z"/>
<path class="st1" d="M4.9,96.4c-0.1-0.4-0.3-0.7-0.4-1.1C4.7,95.6,4.8,96,4.9,96.4z"/>
<path class="st1" d="M3.5,92.2c-0.1-0.4-0.2-0.7-0.3-1.1C3.3,91.4,3.4,91.8,3.5,92.2z"/>
<path class="st1" d="M4.2,94.3l-0.4-1.1L4.2,94.3z"/>
<path class="st1" d="M8.4,104.3l-0.5-1L8.4,104.3z"/>
<path class="st1" d="M45.6,139.9l-1.2-0.6L45.6,139.9z"/>
<path class="st1" d="M9.4,106.2l-0.6-1L9.4,106.2z"/>
<path class="st1" d="M7.5,102.4c-0.2-0.3-0.3-0.7-0.5-1C7.1,101.7,7.3,102,7.5,102.4z"/>
<path class="st1" d="M0.4,76.2c0-0.4-0.1-0.8-0.1-1.2C0.3,75.4,0.4,75.8,0.4,76.2z"/>
<path class="st1" d="M11.2,109.4c-0.5-0.8-1-1.6-1.4-2.5C10.3,107.8,10.8,108.6,11.2,109.4z"/>
<path class="st1" d="M0.7,78.6l-0.1-1.2L0.7,78.6z"/>
<path class="st1" d="M2.3,87.8l-0.3-1.2L2.3,87.8z"/>
<path class="st1" d="M94.8,151.4h-1.9c1.9,0.1,3.8,0.1,5.8,0H94.8z"/>
<path class="st1" d="M1,81c0-0.4-0.1-0.8-0.2-1.2C0.9,80.2,1,80.6,1,81z"/>
<path class="st1" d="M1.9,85.6c-0.1-0.4-0.2-0.8-0.2-1.2C1.7,84.8,1.8,85.2,1.9,85.6z"/>
<path class="st1" d="M1.4,83.3l-0.2-1.2L1.4,83.3z"/>
<path class="st1" d="M6.6,100.4l-0.4-1.1L6.6,100.4z"/>
<path class="st1" d="M27.1,127.9l-0.9-0.8L27.1,127.9z"/>
<path class="st1" d="M30.4,130.5l-1-0.8L30.4,130.5z"/>
<path class="st1" d="M24,125.1l-0.8-0.8L24,125.1z"/>
<path class="st1" d="M25.6,126.5l-0.9-0.8L25.6,126.5z"/>
<path class="st1" d="M28.7,129.2l-1-0.8L28.7,129.2z"/>
<path class="st1" d="M40.1,137l-1.2-0.7L40.1,137z"/>
<path class="st1" d="M41.9,138l-1.2-0.6L41.9,138z"/>
<path class="st1" d="M36.7,134.9c-2-1.3-3.9-2.6-5.8-4C32.8,132.3,34.7,133.6,36.7,134.9z"/>
<path class="st1" d="M38.3,135.9l-1.2-0.7L38.3,135.9z"/>
<path class="st1" d="M21.1,122.2l-0.8-0.8L21.1,122.2z"/>
<path class="st1" d="M14.5,114.2l-0.7-0.9L14.5,114.2z"/>
<path class="st1" d="M17,117.5l-0.7-0.9L17,117.5z"/>
<path class="st1" d="M15.7,115.9c-0.2-0.3-0.5-0.6-0.7-0.9C15.2,115.3,15.5,115.6,15.7,115.9z"/>
<path class="st1" d="M13.3,112.5l-0.6-1L13.3,112.5z"/>
<path class="st1" d="M22.6,123.7c-0.3-0.3-0.5-0.6-0.8-0.8C22,123.1,22.3,123.4,22.6,123.7z"/>
<path class="st1" d="M18.3,119.1l-0.7-0.9L18.3,119.1z"/>
<path class="st1" d="M12.1,110.8l-0.7-1L12.1,110.8z"/>
<path class="st1" d="M19.7,120.7c-0.3-0.3-0.5-0.6-0.8-0.8C19.2,120.1,19.4,120.4,19.7,120.7z"/>
<path class="st1" d="M193.4,67.4v-68H0.3V75l0,0c0,0.4,0.1,0.8,0.1,1.2s0.1,0.8,0.1,1.2l0.2,1.2c0.1,0.4,0.1,0.8,0.1,1.2
	S1,80.6,1,81s0.1,0.7,0.2,1.1l0.2,1.2l0.2,1.1c0.1,0.4,0.2,0.8,0.2,1.2s0.1,0.7,0.2,1.1l0.3,1.2l0.3,1.1c0.1,0.4,0.2,0.8,0.3,1.1
	s0.2,0.7,0.3,1s0.2,0.8,0.3,1.1s0.2,0.7,0.3,1l0.4,1.1c0.1,0.3,0.2,0.7,0.3,1s0.2,0.7,0.4,1.1s0.2,0.7,0.4,1l0.4,1.1l0.4,0.9
	l0.4,1.1c0.1,0.3,0.3,0.6,0.4,0.9s0.3,0.7,0.5,1l0.4,0.9l0.5,1c0.1,0.3,0.3,0.6,0.4,0.8l0.6,1c0.1,0.2,0.3,0.5,0.4,0.7
	c0.5,0.8,0.9,1.7,1.4,2.5c0.1,0.1,0.1,0.3,0.2,0.4l0.7,1c0.2,0.2,0.3,0.5,0.5,0.8l0.6,1l0.5,0.8l0.7,0.9c0.2,0.3,0.4,0.5,0.6,0.8
	s0.4,0.6,0.7,0.9l0.6,0.8l0.7,0.9l0.6,0.7l0.7,0.9l0.6,0.7c0.2,0.3,0.5,0.6,0.8,0.8l0.6,0.7l0.8,0.8l0.6,0.7
	c0.3,0.3,0.5,0.6,0.8,0.8l0.6,0.6L24,125l0.7,0.6l0.9,0.8l0.7,0.6l0.9,0.8l0.6,0.5l1,0.8l0.6,0.5l1,0.8l0.5,0.4
	c1.9,1.4,3.8,2.8,5.8,4l0.4,0.3l1.2,0.7c0.2,0.1,0.4,0.2,0.6,0.4l1.2,0.7l0.6,0.4l1.2,0.6l0.7,0.4l1.2,0.6l0.7,0.4l1.2,0.6l0.7,0.4
	l1.2,0.6l0.7,0.3l1.2,0.6l0.7,0.3l1.2,0.5l0.7,0.3l1.3,0.5l0.7,0.3c0.4,0.2,0.9,0.3,1.3,0.5l0.6,0.2l1.4,0.5l0.5,0.2l1.5,0.5
	l0.4,0.1c3.2,1,6.4,1.9,9.7,2.7h0.1l1.8,0.4l0.4,0.1l1.6,0.3l0.5,0.1l1.6,0.3l0.6,0.1l1.6,0.3l0.6,0.1l1.5,0.2l0.6,0.1l1.5,0.2
	l0.6,0.1l1.5,0.2l0.6,0.1l1.6,0.1l0.6,0.1l1.6,0.1h0.5l1.7,0.1h0.4l1.7,0.1h0.3h1.9h3.9C146.3,150.6,193.4,122.6,193.4,67.4z"/>
<path class="st0" d="M56.1,65.6c-1.2,0.1-2.5-0.3-3.3-1.2c-0.7-0.8-0.9-2.1-0.5-3.9c0.6-3.1,3.4-7.8,8.2-7.8c1-0.1,1.9,0.3,2.6,1
	c0.7,1,0.9,2.2,0.6,3.3C62,65.2,57.1,65.6,56.1,65.6 M60.6,49.6c-6.5,0-13.8,3.9-15.1,10.5c-1.4,7.1,4.9,8.6,8.9,8.6
	c9.1,0.1,14.6-5.3,15.9-10.8C71.5,52.6,66.8,49.6,60.6,49.6"/>
<path class="st0" d="M120.3,59.5c-3.4,0.3-4.7,1.2-5,2.9c-0.2,1.3,0.6,2.5,3.8,2.4c1.8-0.1,3.6-0.5,5.3-1.2l1.6-4.1
	C124.1,59.3,122.2,59.3,120.3,59.5 M115.3,50.2c3-0.5,6-0.8,9-0.8c7,0,11.2,2.3,9.2,7.5c-0.9,2.2-1.8,4.6-2.5,6.6
	c-1,2.8-0.8,3.8-0.6,4.8c-1.6-0.4-3.3-0.6-5-0.5c-3.1,0.1-4.4,0.9-9.4,0.9c-5.4,0-7.4-2.7-7.2-5.5c0.2-2.5,1.6-4.7,4.7-5.9
	c2-0.7,4-1.2,6.1-1.3c2.6-0.2,5.2-0.2,7.8,0c0.3-0.9,0.7-2.8-3.9-2.9c-3.3-0.1-6.6,0.4-9.8,1.3L115.3,50.2z"/>
<path class="st0" d="M92.7,65.1c-3.8,0-3.4-3.7-2.1-6.5c1.3-3,4.1-5.1,7.3-5.4c1.5-0.2,3,0.3,4.1,1.2C99.4,64.3,94.2,65.1,92.7,65.1
	 M107,50.5c-3.3,0-3.5-0.9-8.9-0.9c-7.8,0-14.2,5.7-15.1,12c-0.3,1.8,0.2,3.6,1.4,5c1.2,1.3,3,1.8,5.1,1.9c3.1,0.2,6.2-0.6,8.8-2.3
	C96.7,71,91.2,72,87.5,72c-1.8,0.1-3.6-0.2-5.3-0.8l-1.6,4.1c2,0.5,4,0.7,6,0.7c9.1,0,14.9-3.2,17.4-9.6l6.2-16.3
	C109.1,50.3,108,50.5,107,50.5"/>
<path class="st0" d="M43.3,63c-2,0.9-4.1,1.4-6.3,1.4c-6.1,0-8-3.7-7.3-7.3c1.1-6,6.8-10.5,13.6-10.5c1.9,0,3.9,0.4,5.7,1.1l2-3.9
	c-2-0.8-4.1-1.2-6.3-1.2c-10.9,0-21,6.2-22.5,14.5c-1.3,7.3,5,11.4,12.8,11.4c2.1,0,4.2-0.3,6.3-0.8L43.3,63z"/>
<path class="st0" d="M147.2,49.4l1.4-3.7l-6.9,1.2l-0.9,2.5h-3l-1.1,3h3l-3.6,9c-0.9,2.3-1,3.9-0.1,5.1s2.4,1.7,4.9,1.7
	c1.6,0,3.2-0.3,4.8-0.7L147,64l0,0c-1,0.4-2.1,0.7-3.3,0.7c-0.6,0.1-1.1-0.1-1.5-0.5c-0.4-0.5-0.3-1.6,0.3-3.1c0,0,3-7.3,3.5-8.6
	h4.5l1.2-3L147.2,49.4z"/>
<path class="st0" d="M163.4,52.6c0.9-0.1,1.8,0.2,2.5,0.9c0.5,0.7,0.6,1.8,0.1,3.3h-8.4C158.3,54.2,160.7,52.5,163.4,52.6
	 M168.3,64.1L168.3,64.1c-2.2,0.9-4.6,1.4-7,1.4c-1.6,0.1-3.1-0.5-4.2-1.7c-0.8-1.1-1-2.5-0.6-3.8h14.9l0.1-0.2c1.2-3.2,1-6-0.4-7.9
	s-3.6-2.6-6.7-2.6c-7,0-13,3.9-14.6,9.5c-0.9,2.4-0.4,5.1,1.1,7.2c1.7,2.1,4.7,3.2,8.4,3.2c2.4,0,4.8-0.4,7.1-1.1L168.3,64.1z"/>
<path class="st0" d="M163.4,52.6c0.9-0.1,1.8,0.2,2.5,0.9c0.5,0.7,0.6,1.8,0.1,3.3h-8.4C158.3,54.2,160.7,52.5,163.4,52.6
	 M168.3,64.1L168.3,64.1c-2.2,0.9-4.6,1.4-7,1.4c-1.6,0.1-3.1-0.5-4.2-1.7c-0.8-1.1-1-2.5-0.6-3.8h14.9l0.1-0.2c1.2-3.2,1-6-0.4-7.9
	s-3.6-2.6-6.7-2.6c-7,0-13,3.9-14.6,9.5c-0.9,2.4-0.4,5.1,1.1,7.2c1.7,2.1,4.7,3.2,8.4,3.2c2.4,0,4.8-0.4,7.1-1.1L168.3,64.1z"/>
<path class="st0" d="M174.6,48.3h0.2c0.3,0,0.5-0.1,0.5-0.3s-0.2-0.3-0.4-0.3h-0.2L174.6,48.3z M174.6,49.7h-0.8v-2.5
	c0.4-0.1,0.7-0.1,1.1-0.1c0.3,0,0.7,0,1,0.2c0.2,0.1,0.3,0.3,0.3,0.5c0,0.2-0.2,0.5-0.6,0.6l0,0c0.3,0.1,0.5,0.3,0.5,0.6
	c0,0.2,0.1,0.4,0.2,0.6h-0.9c-0.1-0.2-0.2-0.3-0.2-0.5c-0.1-0.2-0.2-0.4-0.4-0.4h-0.2L174.6,49.7z M174.9,46.4c-1.1,0-2,0.9-2,2
	s0.9,2,2,2s2-0.9,2-2c0-1.1-0.8-2-1.9-2C174.9,46.4,174.9,46.4,174.9,46.4z M174.9,45.8c1.5,0,2.7,1.2,2.7,2.7s-1.2,2.7-2.7,2.7
	c-1.5,0-2.7-1.2-2.7-2.7S173.4,45.8,174.9,45.8L174.9,45.8z"/>
<polygon class="st0" points="79.6,43.2 69.8,68.3 76.3,68.3 86,43.2 "/>
<path class="st0" d="M137.9,76.9L137.9,76.9c-5.1,5.9-11.3,10.7-18.3,14.1c-13.8,6.8-29.9,6.8-43.7,0c-7-3.5-13.2-8.3-18.2-14.1
	l-1.8,4.8c15.6,23.1,47,29.2,70.2,13.6c5.4-3.6,10-8.3,13.7-13.7L137.9,76.9z"/>
</svg>
