<svg id="Capa_1" data-name="Capa 1" xmlns="http://www.w3.org/2000/svg" viewBox="0 0 627.67 152"><defs><style>.cls-1{fill:#fff;}.cls-2,.cls-7{fill:#d71b16;}.cls-3,.cls-7{font-size:46.08px;}.cls-10,.cls-17,.cls-3{fill:#8d8b8a;}.cls-10,.cls-3,.cls-7{font-family:ColgateReady, Colgate Ready;}.cls-4{letter-spacing:-0.1em;}.cls-5{letter-spacing:-0.02em;}.cls-6{letter-spacing:-0.06em;}.cls-8{letter-spacing:-0.1em;}.cls-9{letter-spacing:-0.04em;}.cls-10{font-size:30.34px;letter-spacing:0.4em;}.cls-11{letter-spacing:0.41em;}.cls-12{letter-spacing:0.38em;}.cls-13{letter-spacing:0.42em;}.cls-14{letter-spacing:0.41em;}.cls-15{letter-spacing:0.42em;}.cls-16{letter-spacing:0.38em;}</style></defs><path class="cls-1" d="M434.26-.64H.31V75c4.12,50.21,49,75.66,94.46,76.36H532.89c47.7-.73,94.78-28.72,94.78-84v-68Z"/><path class="cls-2" d="M532.89,151.36H529C530.32,151.38,531.61,151.38,532.89,151.36Z"/><path class="cls-2" d="M98.63,151.36H94.77C96.06,151.38,97.34,151.38,98.63,151.36Z"/><text class="cls-3" transform="translate(374.43 83.55)">DIGI<tspan class="cls-4" x="93.53" y="0">T</tspan><tspan class="cls-5" x="116.62" y="0">A</tspan><tspan class="cls-6" x="146.71" y="0">L</tspan></text><text class="cls-7" transform="translate(229.91 83.55)">VISI<tspan class="cls-8" x="82.38" y="0">T</tspan><tspan class="cls-9" x="105.47" y="0">A</tspan></text><text class="cls-10" transform="translate(232.47 133.81)">A<tspan class="cls-11" x="32.4" y="0">U</tspan><tspan class="cls-12" x="66.11" y="0">T</tspan><tspan class="cls-13" x="95.81" y="0">O</tspan><tspan class="cls-14" x="132.4" y="0">G</tspan><tspan class="cls-15" x="166.86" y="0">UIA</tspan><tspan class="cls-16" x="255.27" y="0">DA</tspan></text><rect class="cls-17" x="230.28" y="36.6" width="311.67" height="3.32"/><rect class="cls-17" x="230.28" y="94.81" width="311.67" height="3.32"/><path class="cls-1" d="M59.73,145.66l-.36-.11Z"/><path class="cls-1" d="M17.58,118.24l-.6-.73Z"/><path class="cls-1" d="M16.27,116.63l-.57-.75Z"/><path class="cls-1" d="M18.93,119.82l-.61-.71Z"/><path class="cls-1" d="M69.54,148.36l-.11,0Z"/><path class="cls-1" d="M21.74,122.85l-.64-.66Z"/><path class="cls-1" d="M57.87,145l-.53-.18Z"/><path class="cls-1" d="M20.32,121.35l-.63-.68Z"/><path class="cls-1" d="M73.78,149.24l-.49-.09Z"/><path class="cls-1" d="M11.47,109.77c-.08-.12-.15-.25-.23-.38C11.32,109.52,11.39,109.65,11.47,109.77Z"/><path class="cls-1" d="M23.21,124.31l-.65-.64Z"/><path class="cls-1" d="M9.81,106.93c-.14-.25-.29-.49-.42-.74C9.52,106.44,9.67,106.68,9.81,106.93Z"/><path class="cls-1" d="M13.78,113.28l-.52-.77Z"/><path class="cls-1" d="M15,115c-.19-.25-.37-.5-.55-.76C14.64,114.47,14.82,114.72,15,115Z"/><path class="cls-1" d="M12.61,111.55c-.17-.25-.32-.5-.48-.75C12.29,111.05,12.44,111.3,12.61,111.55Z"/><path class="cls-1" d="M71.65,148.82l-.36-.08Z"/><path class="cls-1" d="M27.79,128.42l-.65-.54Z"/><path class="cls-1" d="M38.9,136.28c-.2-.11-.39-.23-.58-.35C38.51,136.05,38.7,136.17,38.9,136.28Z"/><path class="cls-1" d="M50.12,142l-.71-.31Z"/><path class="cls-1" d="M40.71,137.34l-.64-.37Z"/><path class="cls-1" d="M37.11,135.19l-.43-.28Z"/><path class="cls-1" d="M44.41,139.33l-.7-.36Z"/><path class="cls-1" d="M48.19,141.17l-.71-.33Z"/><path class="cls-1" d="M42.54,138.35l-.67-.36Z"/><path class="cls-1" d="M52.05,142.85l-.69-.29Z"/><path class="cls-1" d="M26.24,127.09l-.67-.58Z"/><path class="cls-1" d="M30.88,130.88l-.5-.38Z"/><path class="cls-1" d="M54,143.62l-.67-.26Z"/><path class="cls-1" d="M24.71,125.72l-.66-.61Z"/><path class="cls-1" d="M55.94,144.36l-.61-.23Z"/><path class="cls-1" d="M8.84,105.15c-.14-.28-.3-.56-.44-.85C8.54,104.59,8.7,104.87,8.84,105.15Z"/><path class="cls-1" d="M29.35,129.69l-.61-.48Z"/><path class="cls-1" d="M6.12,99.35l-.39-.95Z"/><path class="cls-1" d="M82.34,150.55l-.61-.08Z"/><path class="cls-1" d="M3.21,91c-.1-.34-.2-.69-.29-1C3,90.35,3.11,90.7,3.21,91Z"/><path class="cls-1" d="M4.56,95.28c-.12-.33-.23-.67-.35-1C4.33,94.61,4.44,95,4.56,95.28Z"/><path class="cls-1" d="M3.85,93.18c-.1-.34-.21-.68-.31-1C3.64,92.5,3.75,92.84,3.85,93.18Z"/><path class="cls-1" d="M2.62,88.87l-.27-1.06Z"/><path class="cls-1" d="M.54,77.41c0-.39-.07-.77-.11-1.16C.47,76.64.5,77,.54,77.41Z"/><path class="cls-1" d="M1.61,84.4,1.4,83.3Z"/><path class="cls-1" d="M84.48,150.78l-.6-.06Z"/><path class="cls-1" d="M.83,79.78c0-.38-.09-.77-.14-1.15C.74,79,.78,79.4.83,79.78Z"/><path class="cls-1" d="M86.62,151l-.57-.05Z"/><path class="cls-1" d="M2.08,86.65c-.08-.36-.15-.72-.23-1.08C1.93,85.93,2,86.29,2.08,86.65Z"/><path class="cls-1" d="M88.75,151.12l-.53,0Z"/><path class="cls-1" d="M1.19,82.11c-.06-.38-.12-.75-.17-1.12C1.07,81.36,1.13,81.73,1.19,82.11Z"/><path class="cls-1" d="M46.29,140.27l-.71-.35Z"/><path class="cls-1" d="M7.89,103.27l-.43-.9Z"/><path class="cls-1" d="M92.88,151.32h0Z"/><path class="cls-1" d="M78.05,150l-.59-.09Z"/><path class="cls-1" d="M7,101.33c-.14-.31-.28-.61-.41-.92C6.7,100.72,6.84,101,7,101.33Z"/><path class="cls-1" d="M90.85,151.24l-.45,0Z"/><path class="cls-1" d="M75.91,149.62l-.55-.09Z"/><path class="cls-1" d="M5.31,97.34c-.12-.33-.25-.65-.37-1C5.06,96.69,5.19,97,5.31,97.34Z"/><path class="cls-1" d="M80.2,150.28l-.62-.09Z"/><path class="cls-2" d="M47.48,140.84l-1.19-.57Z"/><path class="cls-2" d="M88.22,151.09l-1.6-.12Z"/><path class="cls-2" d="M92.59,151.31l-1.74-.07Z"/><path class="cls-2" d="M49.41,141.72l-1.22-.55Z"/><path class="cls-2" d="M75.36,149.53l-1.58-.29Z"/><path class="cls-2" d="M90.4,151.22l-1.65-.1Z"/><path class="cls-2" d="M51.36,142.56,50.12,142Z"/><path class="cls-2" d="M53.33,143.36l-1.28-.51Z"/><path class="cls-2" d="M79.58,150.19,78.05,150Z"/><path class="cls-2" d="M69.43,148.33q-4.92-1.12-9.7-2.67Q64.5,147.2,69.43,148.33Z"/><path class="cls-2" d="M71.29,148.74l-1.75-.38Z"/><path class="cls-2" d="M73.29,149.15l-1.64-.33Z"/><path class="cls-2" d="M77.46,149.88l-1.55-.26Z"/><path class="cls-2" d="M81.73,150.47l-1.53-.19Z"/><path class="cls-2" d="M55.33,144.13c-.45-.17-.89-.33-1.33-.51C54.44,143.8,54.88,144,55.33,144.13Z"/><path class="cls-2" d="M86.05,150.92l-1.57-.14Z"/><path class="cls-2" d="M83.88,150.72l-1.54-.17Z"/><path class="cls-2" d="M57.34,144.86l-1.4-.5Z"/><path class="cls-2" d="M59.37,145.55l-1.5-.51Z"/><path class="cls-2" d="M43.71,139l-1.17-.62Z"/><path class="cls-2" d="M2.92,90c-.1-.38-.21-.76-.3-1.14C2.71,89.25,2.82,89.63,2.92,90Z"/><path class="cls-2" d="M5.73,98.4l-.42-1.06Z"/><path class="cls-2" d="M4.94,96.36c-.13-.36-.26-.72-.38-1.08C4.68,95.64,4.81,96,4.94,96.36Z"/><path class="cls-2" d="M3.54,92.16c-.12-.37-.23-.74-.33-1.12C3.31,91.42,3.42,91.79,3.54,92.16Z"/><path class="cls-2" d="M4.21,94.28l-.36-1.1Z"/><path class="cls-2" d="M8.4,104.3l-.51-1Z"/><path class="cls-2" d="M45.58,139.92l-1.17-.59Z"/><path class="cls-2" d="M9.39,106.19l-.55-1Z"/><path class="cls-2" d="M7.46,102.37c-.17-.34-.32-.69-.48-1C7.14,101.68,7.29,102,7.46,102.37Z"/><path class="cls-2" d="M.43,76.25c0-.42-.09-.83-.12-1.25C.34,75.42.39,75.83.43,76.25Z"/><path class="cls-2" d="M11.24,109.39c-.49-.81-1-1.63-1.43-2.46C10.27,107.76,10.75,108.58,11.24,109.39Z"/><path class="cls-2" d="M.69,78.63.54,77.41Z"/><path class="cls-2" d="M2.35,87.81l-.27-1.16Z"/><path class="cls-2" d="M94.77,151.36l-1.89,0c1.91.05,3.83.07,5.75,0H94.77Z"/><path class="cls-2" d="M1,81C1,80.58.89,80.18.83,79.78.89,80.18,1,80.58,1,81Z"/><path class="cls-2" d="M1.85,85.57c-.08-.39-.17-.78-.24-1.17C1.68,84.79,1.77,85.18,1.85,85.57Z"/><path class="cls-2" d="M1.4,83.3l-.21-1.19Z"/><path class="cls-2" d="M6.57,100.41l-.45-1.06Z"/><path class="cls-2" d="M27.14,127.88l-.9-.79Z"/><path class="cls-2" d="M30.38,130.5l-1-.81Z"/><path class="cls-2" d="M24.05,125.11l-.84-.8Z"/><path class="cls-2" d="M25.57,126.51l-.86-.79Z"/><path class="cls-2" d="M28.74,129.21l-.95-.79Z"/><path class="cls-2" d="M40.07,137l-1.17-.69Z"/><path class="cls-2" d="M41.87,138l-1.16-.65Z"/><path class="cls-2" d="M36.68,134.91c-2-1.27-3.93-2.62-5.8-4C32.75,132.29,34.69,133.64,36.68,134.91Z"/><path class="cls-2" d="M38.32,135.93l-1.21-.74Z"/><path class="cls-2" d="M21.1,122.19l-.78-.84Z"/><path class="cls-2" d="M14.46,114.21l-.68-.93Z"/><path class="cls-2" d="M17,117.51l-.71-.88Z"/><path class="cls-2" d="M15.7,115.88c-.24-.3-.47-.6-.69-.91C15.23,115.28,15.46,115.58,15.7,115.88Z"/><path class="cls-2" d="M13.26,112.51l-.65-1Z"/><path class="cls-2" d="M22.56,123.67c-.28-.27-.55-.55-.82-.82C22,123.12,22.28,123.4,22.56,123.67Z"/><path class="cls-2" d="M18.32,119.11l-.74-.87Z"/><path class="cls-2" d="M12.13,110.8l-.66-1Z"/><path class="cls-2" d="M19.69,120.67c-.26-.28-.51-.57-.76-.85C19.18,120.1,19.43,120.39,19.69,120.67Z"/><path class="cls-2" d="M193.4,67.38v-68H.31V75h0c0,.42.08.83.12,1.25s.07.77.11,1.16l.15,1.22c.05.38.09.77.14,1.15S1,80.58,1,81s.11.74.17,1.12L1.4,83.3l.21,1.1c.07.39.16.78.24,1.17s.15.72.23,1.08l.27,1.16.27,1.06c.09.38.2.76.3,1.14s.19.69.29,1,.21.75.33,1.12.21.68.31,1l.36,1.1c.12.33.23.67.35,1s.25.72.38,1.08.25.65.37,1l.42,1.06.39.95.45,1.06c.13.31.27.61.41.92s.31.7.48,1l.43.9.51,1c.14.29.3.57.44.85l.55,1c.13.25.28.49.42.74.46.83.94,1.65,1.43,2.46.08.13.15.26.23.38l.66,1c.16.25.31.5.48.75l.65,1,.52.77.68.93c.18.26.36.51.55.76s.45.61.69.91l.57.75.71.88.6.73.74.87.61.71c.25.28.5.57.76.85l.63.68.78.84.64.66c.27.27.54.55.82.82l.65.64.84.8.66.61.86.79.67.58.9.79.65.54.95.79.61.48,1,.81.5.38c1.87,1.41,3.81,2.76,5.8,4l.43.28,1.21.74c.19.12.38.24.58.35l1.17.69.64.37,1.16.65.67.36,1.17.62.7.36,1.17.59.71.35,1.19.57.71.33,1.22.55.71.31,1.24.53.69.29,1.28.51.67.26c.44.18.88.34,1.33.51l.61.23,1.4.5.53.18,1.5.51.36.11q4.77,1.54,9.7,2.67l.11,0,1.75.38.36.08,1.64.33.49.09,1.58.29.55.09,1.55.26.59.09,1.53.22.62.09,1.53.19.61.08,1.54.17.6.06,1.57.14.57.05,1.6.12.53,0,1.65.1.45,0,1.74.07h.29l1.89,0h3.86C146.33,150.63,193.4,122.64,193.4,67.38Z"/><path class="cls-1" d="M56.13,65.57a4.2,4.2,0,0,1-3.35-1.17c-.72-.83-.9-2.13-.55-3.86.64-3.13,3.36-7.8,8.24-7.8a3.26,3.26,0,0,1,2.62,1,3.91,3.91,0,0,1,.56,3.33c-1.65,8.09-6.56,8.51-7.52,8.51m4.47-16c-6.55,0-13.75,3.92-15.08,10.52-1.41,7.06,4.87,8.58,8.9,8.62,9.07.11,14.59-5.32,15.86-10.85,1.21-5.31-3.47-8.29-9.68-8.29"/><path class="cls-1" d="M120.35,59.48c-3.43.35-4.7,1.24-5,2.89-.23,1.32.62,2.55,3.81,2.41a14.05,14.05,0,0,0,5.31-1.25l1.58-4.14a32.75,32.75,0,0,0-5.71.09m-5.08-9.29a47.62,47.62,0,0,1,9-.79c7,0,11.25,2.31,9.25,7.51-.87,2.24-1.76,4.6-2.52,6.58-1,2.77-.83,3.83-.61,4.81a14.92,14.92,0,0,0-5-.5c-3.06.08-4.38.86-9.39.86-5.41,0-7.4-2.68-7.19-5.52.19-2.48,1.58-4.65,4.68-5.88A20.38,20.38,0,0,1,119.6,56a51.64,51.64,0,0,1,7.77,0c.28-.93.69-2.83-3.9-2.86a32.34,32.34,0,0,0-9.83,1.3Z"/><path class="cls-1" d="M92.68,65.1c-3.78,0-3.44-3.68-2.11-6.54a9.19,9.19,0,0,1,7.33-5.44A5.26,5.26,0,0,1,102,54.34c-2.57,10-7.76,10.76-9.3,10.76M107,50.5c-3.32,0-3.47-.91-8.89-.91-7.77,0-14.16,5.72-15.07,12a6,6,0,0,0,1.42,5c1.19,1.3,3,1.81,5.11,1.9a14.32,14.32,0,0,0,8.8-2.29C96.71,71.05,91.2,72,87.49,72a12.87,12.87,0,0,1-5.35-.84l-1.62,4.08a26.07,26.07,0,0,0,6,.71c9.09,0,14.93-3.25,17.36-9.64L110.07,50a14.86,14.86,0,0,1-3.11.51"/><path class="cls-1" d="M43.3,63A17.71,17.71,0,0,1,37,64.44c-6.1,0-8-3.7-7.32-7.31,1.07-6,6.81-10.47,13.61-10.47a14.75,14.75,0,0,1,5.66,1.09l2-3.87a16.14,16.14,0,0,0-6.27-1.23c-10.87,0-21,6.19-22.48,14.45-1.27,7.29,5,11.35,12.75,11.35a28.89,28.89,0,0,0,6.3-.77Z"/><path class="cls-1" d="M147.23,49.44l1.36-3.65L141.7,47l-.94,2.47h-3l-1.1,3h3l-3.62,9c-.93,2.27-1,3.94-.15,5.08s2.43,1.67,4.93,1.67a20.79,20.79,0,0,0,4.78-.68L147,64h0a10.69,10.69,0,0,1-3.26.73,1.62,1.62,0,0,1-1.51-.52c-.41-.54-.3-1.62.29-3.09,0,0,3-7.34,3.5-8.62h4.53l1.16-3Z"/><path class="cls-1" d="M163.35,52.57a3,3,0,0,1,2.46.89c.53.7.56,1.84.07,3.29h-8.44a6,6,0,0,1,5.91-4.18m4.94,11.55h0a18.8,18.8,0,0,1-7,1.36,5.16,5.16,0,0,1-4.19-1.72,4.12,4.12,0,0,1-.61-3.8h14.86l.07-.2c1.16-3.23,1-6-.42-7.9s-3.59-2.57-6.74-2.57c-7,0-13,3.92-14.57,9.53A7.59,7.59,0,0,0,150.83,66c1.71,2.06,4.7,3.2,8.43,3.2a26.1,26.1,0,0,0,7.1-1.09Z"/><path class="cls-1" d="M163.35,52.57a3,3,0,0,1,2.46.89c.53.7.56,1.84.07,3.29h-8.44a6,6,0,0,1,5.91-4.18m4.94,11.55h0a18.8,18.8,0,0,1-7,1.36,5.16,5.16,0,0,1-4.19-1.72,4.12,4.12,0,0,1-.61-3.8h14.86l.07-.2c1.16-3.23,1-6-.42-7.9s-3.59-2.57-6.74-2.57c-7,0-13,3.92-14.57,9.53A7.59,7.59,0,0,0,150.83,66c1.71,2.06,4.7,3.2,8.43,3.2a26.1,26.1,0,0,0,7.1-1.09Z"/><path class="cls-1" d="M174.55,48.32h.22c.27,0,.46-.12.46-.29s-.18-.31-.43-.31h-.25Zm0,1.41h-.77V47.26a6.65,6.65,0,0,1,1.09-.09,1.75,1.75,0,0,1,1,.2.66.66,0,0,1,.26.55c0,.25-.23.46-.57.56v0a.73.73,0,0,1,.51.63,3.09,3.09,0,0,0,.17.59h-.85a1.26,1.26,0,0,1-.17-.52c-.05-.25-.17-.38-.42-.38h-.25Zm.31-3.28a2,2,0,1,0,2,2,1.94,1.94,0,0,0-2-2Zm.07-.66a2.68,2.68,0,1,1-.05,5.36,2.68,2.68,0,1,1,0-5.36Z"/><polygon class="cls-1" points="79.56 43.17 69.82 68.3 76.28 68.3 86.02 43.17 79.56 43.17"/><path class="cls-1" d="M137.92,76.89h0A58.82,58.82,0,0,1,119.66,91a49.64,49.64,0,0,1-43.69,0A58.48,58.48,0,0,1,57.74,76.86l-1.85,4.78a50.54,50.54,0,0,0,83.83-.1Z"/></svg>